<svg width="188" height="253" viewBox="0 0 188 253" fill="none" xmlns="http://www.w3.org/2000/svg">
<g>
<path d="M136.671 129.75C164.189 129.75 186.496 107.442 186.496 79.9248C186.496 52.4072 164.189 30.0998 136.671 30.0998C109.153 30.0998 86.8462 52.4072 86.8462 79.9248C86.8462 107.442 109.153 129.75 136.671 129.75Z" fill="#840B55"/>
<path d="M136.693 104.928C150.452 104.928 161.606 93.7741 161.606 80.0152C161.606 66.2569 150.452 55.1029 136.693 55.1029C122.934 55.1029 111.781 66.2569 111.781 80.0152C111.781 93.7741 122.934 104.928 136.693 104.928Z" fill="#CB27A8"/>
<path d="M136.671 191.201C164.189 191.201 186.496 168.893 186.496 141.376C186.496 113.858 164.189 91.5508 136.671 91.5508C109.153 91.5508 86.8462 113.858 86.8462 141.376C86.8462 168.893 109.153 191.201 136.671 191.201Z" fill="#840B55"/>
<path d="M136.693 166.378C150.452 166.378 161.606 155.225 161.606 141.466C161.606 127.707 150.452 116.554 136.693 116.554C122.934 116.554 111.781 127.707 111.781 141.466C111.781 155.225 122.934 166.378 136.693 166.378Z" fill="#CB27A8"/>
<path d="M72.1417 0.899767C69.5751 1.9367 67.8146 4.08112 67.1237 6.50966C62.64 6.05232 57.9748 6.62365 53.4578 8.44862C38.8802 14.3384 31.8442 30.9141 37.7339 45.4918C43.6237 60.0695 60.1992 67.1054 74.7768 61.2155C78.5757 59.6809 81.9394 57.3668 84.6438 54.6021C86.0821 60.2306 83.1214 66.2035 77.5781 68.4435C73.266 70.1857 71.1861 75.0862 72.9278 79.3977C74.67 83.7093 79.5705 85.7897 83.8826 84.0475C98.4603 78.1577 105.496 61.582 99.6062 47.0045L82.9326 5.73527C81.1904 1.42355 76.2899 -0.656664 71.9778 1.08538L72.1417 0.899767ZM68.4529 45.8582C62.4989 48.2639 55.6828 45.2857 53.277 39.3315C50.8714 33.3772 53.7469 26.6027 59.7009 24.1971C65.6556 21.7914 72.4301 24.6669 74.8355 30.6212C77.241 36.5755 74.407 43.4526 68.4529 45.8582Z" fill="#27CB4A"/>
<path d="M50.308 166.288C77.8257 166.288 100.133 143.98 100.133 116.463C100.133 88.9455 77.8257 66.6383 50.308 66.6383C22.7905 66.6383 0.483124 88.9455 0.483124 116.463C0.483124 143.98 22.7905 166.288 50.308 166.288Z" fill="#CB27A8"/>
<path d="M50.3304 141.466C64.0892 141.466 75.2428 130.312 75.2428 116.554C75.2428 102.795 64.0892 91.6411 50.3304 91.6411C36.5716 91.6411 25.4179 102.795 25.4179 116.554C25.4179 130.312 36.5716 141.466 50.3304 141.466Z" fill="#840B55"/>
<path d="M94.0431 209.47C121.561 209.47 143.868 187.162 143.868 159.645C143.868 132.127 121.561 109.82 94.0431 109.82C66.5253 109.82 44.2182 132.127 44.2182 159.645C44.2182 187.162 66.5253 209.47 94.0431 209.47Z" fill="#CB27A8"/>
<path d="M94.0654 184.647C107.824 184.647 118.978 173.494 118.978 159.735C118.978 145.977 107.824 134.823 94.0654 134.823C80.3065 134.823 69.153 145.977 69.153 159.735C69.153 173.494 80.3065 184.647 94.0654 184.647Z" fill="#840B55"/>
<path d="M137.225 252.651C164.742 252.651 187.05 230.344 187.05 202.826C187.05 175.309 164.742 153.002 137.225 153.002C109.707 153.002 87.3998 175.309 87.3998 202.826C87.3998 230.344 109.707 252.651 137.225 252.651Z" fill="#CB27A8"/>
<path d="M137.247 227.829C151.006 227.829 162.159 216.676 162.159 202.917C162.159 189.158 151.006 178.004 137.247 178.004C123.488 178.004 112.335 189.158 112.335 202.917C112.335 216.676 123.488 227.829 137.247 227.829Z" fill="#840B55"/>
<path d="M64.3782 63.3942C79.8793 63.3942 92.5016 50.772 92.5016 35.2709C92.5016 19.7698 79.8793 7.14749 64.3782 7.14749C48.8773 7.14749 36.255 19.7698 36.255 35.2709C36.255 50.772 48.8773 63.3942 64.3782 63.3942ZM64.3782 23.6451C70.8001 23.6451 76.004 28.849 76.004 35.2709C76.004 41.6928 70.8001 46.8967 64.3782 46.8967C57.9563 46.8967 52.7526 41.6928 52.7526 35.2709C52.7526 28.849 57.9563 23.6451 64.3782 23.6451Z" fill="url(#paint0_linear)"/>
<mask id="mask0"  maskUnits="userSpaceOnUse" x="64" y="0" width="32" height="55">
<path d="M64.6353 0.196838L80.9669 0.196844L95.3607 37.2887L85.1189 54.7275L75.4307 35.628L64.6353 0.196838Z" fill="#C4C4C4"/>
</mask>
<g mask="url(#mask0)">
<path d="M101.713 75.1833C105.922 73.4826 107.941 68.726 106.24 64.5169L82.3499 5.38498C80.6492 1.17594 75.8926 -0.843086 71.6835 0.857478C67.4744 2.55805 65.4554 7.31455 67.156 11.5236L91.0471 70.6559C92.7478 74.8644 97.5039 76.8835 101.713 75.1833Z" fill="url(#paint1_linear)"/>
</g>
</g>
<defs>
<linearGradient id="paint0_linear" x1="64.4889" y1="-21.8617" x2="64.4889" y2="93.2892" gradientUnits="userSpaceOnUse">
<stop stop-color="#27CB4A"/>
<stop offset="1" stop-color="#27C949"/>
</linearGradient>
<linearGradient id="paint1_linear" x1="70.135" y1="-4.01003" x2="84.8422" y2="42.2713" gradientUnits="userSpaceOnUse">
<stop stop-color="#47DC67"/>
<stop offset="0.552083" stop-color="#27CB4A"/>
</linearGradient>
<clipPath id="clip0">
<rect width="187.12" height="253" fill="white"/>
</clipPath>
</defs>
</svg>
