<svg width="133" height="39" viewBox="0 0 133 39" fill="none" xmlns="http://www.w3.org/2000/svg">
<path d="M17.8 9.56C16.8 9.56 15.92 10.04 15.36 10.76C13.92 10 12.28 9.56 10.52 9.56C4.84 9.56 0.24 14.16 0.24 19.84C0.24 25.52 4.84 30.12 10.52 30.12C12 30.12 13.44 29.8 14.72 29.24C14.44 31.32 12.64 32.92 10.48 32.92C8.8 32.92 7.44 34.28 7.44 35.96C7.44 37.64 8.8 39 10.48 39C16.16 39 20.76 34.4 20.76 28.72L20.76 12.64C20.76 10.96 19.4 9.6 17.72 9.6L17.8 9.56ZM10.48 24.12C8.16 24.12 6.28 22.2 6.28 19.88C6.28 17.56 8.16 15.68 10.48 15.68C12.8 15.68 14.68 17.56 14.68 19.88C14.68 22.2 12.8 24.12 10.48 24.12ZM33.3669 9.56C31.6469 9.56 30.0069 10 28.5669 10.76C28.0069 10.04 27.1269 9.56 26.1669 9.56C24.5269 9.56 23.2069 10.88 23.2069 12.52L23.2069 26.88C23.2069 28.52 24.5269 29.84 26.1669 29.84C27.8069 29.84 29.1269 28.52 29.1269 26.88L29.1269 19.68C29.1269 17.36 31.0069 15.48 33.3269 15.48C34.9669 15.48 36.2869 14.16 36.2869 12.52C36.2869 10.88 34.9669 9.56 33.3269 9.56L33.3669 9.56ZM53.7966 9.72C52.8366 9.72 51.9566 10.2 51.3966 10.92C49.9566 10.16 48.3166 9.72 46.5966 9.72C40.9966 9.72 36.4366 14.28 36.4366 19.88C36.4366 25.48 40.9966 30.04 46.5966 30.04C48.3166 30.04 49.9566 29.6 51.3966 28.84C51.9566 29.56 52.8366 30.04 53.7966 30.04C55.4366 30.04 56.7566 28.72 56.7566 27.08L56.7566 12.76C56.7566 11.12 55.4366 9.8 53.7966 9.8L53.7966 9.72ZM46.6366 24.12C44.3166 24.12 42.4366 22.24 42.4366 19.92C42.4366 17.6 44.3166 15.72 46.6366 15.72C48.9566 15.72 50.8366 17.6 50.8366 19.92C50.8366 22.24 48.9566 24.12 46.6366 24.12ZM69.8119 9.56C68.0519 9.56 66.4119 10 64.9719 10.76C64.4119 10.04 63.5319 9.56 62.5319 9.56C60.8519 9.56 59.4919 10.92 59.4919 12.6L59.4919 35.92C59.4919 37.6 60.8519 38.96 62.5319 38.96C64.2119 38.96 65.5719 37.6 65.5719 35.92L65.5719 29.2C66.8519 29.8 68.2919 30.12 69.8119 30.12C75.4919 30.12 80.0919 25.52 80.0919 19.84C80.0919 14.16 75.4919 9.56 69.8119 9.56ZM69.8119 24.08C67.4919 24.08 65.6119 22.16 65.6119 19.84C65.6119 17.52 67.4919 15.64 69.8119 15.64C72.1319 15.64 74.0119 17.52 74.0119 19.84C74.0119 22.16 72.1319 24.08 69.8119 24.08ZM92.0625 30C93.7025 30 95.0225 28.68 95.0225 27.04C95.0225 25.4 93.7025 24.08 92.0625 24.08C90.9025 24.08 89.8625 23.6 89.1025 22.84L99.1825 22.84C99.9825 22.84 100.743 22.52 101.303 21.96C101.863 21.4 102.183 20.64 102.183 19.84C102.183 14.24 97.6225 9.68 92.0225 9.68C86.4225 9.68 81.8625 14.24 81.8625 19.84C81.8625 25.44 86.4225 30 92.0225 30L92.0625 30ZM89.1025 16.88C89.8625 16.12 90.9025 15.64 92.0625 15.64C93.2225 15.64 94.2625 16.12 95.0225 16.88L89.1025 16.88ZM114.448 30C119.848 30 124.248 25.6 124.248 20.2L124.248 12.52C124.248 10.92 122.968 9.64 121.368 9.64C119.768 9.64 118.488 10.92 118.488 12.52L118.488 20.2C118.488 22.44 116.688 24.24 114.448 24.24C112.208 24.24 110.408 22.44 110.408 20.2L110.408 12.52C110.408 10.92 109.128 9.64 107.528 9.64C105.928 9.64 104.648 10.92 104.648 12.52L104.648 20.2C104.648 25.6 109.048 30 114.448 30ZM129.798 6.92C130.598 6.92 131.358 6.6 131.918 6.04C132.478 5.48 132.798 4.72 132.798 3.92C132.798 3.12 132.478 2.36 131.918 1.8C130.798 0.679997 128.798 0.679997 127.678 1.8C127.118 2.36 126.798 3.12 126.798 3.92C126.798 4.72 127.118 5.48 127.678 6.04C128.238 6.6 128.998 6.92 129.798 6.92ZM129.798 30C131.438 30 132.758 28.68 132.758 27.04L132.758 12.68C132.758 11.04 131.438 9.72 129.798 9.72C128.158 9.72 126.838 11.04 126.838 12.68L126.838 27.04C126.838 28.68 128.158 30 129.798 30Z" fill="#ffffff"/>
</svg>
